<mxfile host="app.diagrams.net" modified="2023-05-17T02:37:32.632Z" agent="Mozilla/5.0 (Windows NT 10.0; Win64; x64) AppleWebKit/537.36 (KHTML, like Gecko) Chrome/113.0.0.0 Safari/537.36" etag="Dg4SeyVPkh_oFANsDXEE" version="21.3.0" type="device">
  <diagram name="Page-1" id="SEIC818icKlU6xiTAPIH">
    <mxGraphModel dx="1320" dy="729" grid="1" gridSize="10" guides="1" tooltips="1" connect="1" arrows="1" fold="1" page="1" pageScale="1" pageWidth="850" pageHeight="1100" math="0" shadow="0">
      <root>
        <mxCell id="0" />
        <mxCell id="1" parent="0" />
        <mxCell id="XD2HxihkieLU-gVsD95L-1" value="AWS Glacier Vault" style="shape=cube;whiteSpace=wrap;html=1;boundedLbl=1;backgroundOutline=1;darkOpacity=0.05;darkOpacity2=0.1;" vertex="1" parent="1">
          <mxGeometry x="370" y="80" width="120" height="80" as="geometry" />
        </mxCell>
        <mxCell id="XD2HxihkieLU-gVsD95L-3" value="AWS S3 Glacier Storage&lt;br&gt;-Archives&lt;br&gt;-Vault Inventory&lt;br&gt;- Glacier Jobs" style="shape=datastore;whiteSpace=wrap;html=1;" vertex="1" parent="1">
          <mxGeometry x="360" y="250" width="140" height="140" as="geometry" />
        </mxCell>
        <mxCell id="XD2HxihkieLU-gVsD95L-4" value="AWS Glacier APIs and AWS CLI" style="shape=process;whiteSpace=wrap;html=1;backgroundOutline=1;" vertex="1" parent="1">
          <mxGeometry x="350" y="480" width="160" height="60" as="geometry" />
        </mxCell>
        <mxCell id="XD2HxihkieLU-gVsD95L-5" value="Client Applications&lt;br&gt;(I.E. Powershell)" style="rounded=0;whiteSpace=wrap;html=1;" vertex="1" parent="1">
          <mxGeometry x="370" y="640" width="120" height="60" as="geometry" />
        </mxCell>
        <mxCell id="XD2HxihkieLU-gVsD95L-6" value="" style="shape=flexArrow;endArrow=classic;html=1;rounded=0;entryX=0.313;entryY=1.083;entryDx=0;entryDy=0;entryPerimeter=0;" edge="1" parent="1">
          <mxGeometry width="50" height="50" relative="1" as="geometry">
            <mxPoint x="400" y="640" as="sourcePoint" />
            <mxPoint x="400.08000000000004" y="543.98" as="targetPoint" />
            <Array as="points">
              <mxPoint x="400" y="599" />
            </Array>
          </mxGeometry>
        </mxCell>
        <mxCell id="XD2HxihkieLU-gVsD95L-16" value="uploading" style="edgeLabel;html=1;align=center;verticalAlign=middle;resizable=0;points=[];" vertex="1" connectable="0" parent="XD2HxihkieLU-gVsD95L-6">
          <mxGeometry x="-0.1036" y="1" relative="1" as="geometry">
            <mxPoint y="23" as="offset" />
          </mxGeometry>
        </mxCell>
        <mxCell id="XD2HxihkieLU-gVsD95L-7" value="" style="shape=flexArrow;endArrow=classic;html=1;rounded=0;entryX=0.667;entryY=-0.033;entryDx=0;entryDy=0;entryPerimeter=0;endWidth=19;endSize=6.51;" edge="1" parent="1" target="XD2HxihkieLU-gVsD95L-5">
          <mxGeometry width="50" height="50" relative="1" as="geometry">
            <mxPoint x="450" y="540" as="sourcePoint" />
            <mxPoint x="510" y="630" as="targetPoint" />
            <Array as="points">
              <mxPoint x="450" y="600" />
            </Array>
          </mxGeometry>
        </mxCell>
        <mxCell id="XD2HxihkieLU-gVsD95L-17" value="retrieving" style="edgeLabel;html=1;align=center;verticalAlign=middle;resizable=0;points=[];" vertex="1" connectable="0" parent="XD2HxihkieLU-gVsD95L-7">
          <mxGeometry x="0.0944" relative="1" as="geometry">
            <mxPoint y="-34" as="offset" />
          </mxGeometry>
        </mxCell>
        <mxCell id="XD2HxihkieLU-gVsD95L-9" value="" style="shape=flexArrow;endArrow=classic;html=1;rounded=0;entryX=0.282;entryY=1.004;entryDx=0;entryDy=0;entryPerimeter=0;" edge="1" parent="1" target="XD2HxihkieLU-gVsD95L-3">
          <mxGeometry width="50" height="50" relative="1" as="geometry">
            <mxPoint x="400" y="480" as="sourcePoint" />
            <mxPoint x="400" y="420" as="targetPoint" />
          </mxGeometry>
        </mxCell>
        <mxCell id="XD2HxihkieLU-gVsD95L-20" value="Uploading" style="edgeLabel;html=1;align=center;verticalAlign=middle;resizable=0;points=[];" vertex="1" connectable="0" parent="XD2HxihkieLU-gVsD95L-9">
          <mxGeometry x="-0.3963" relative="1" as="geometry">
            <mxPoint as="offset" />
          </mxGeometry>
        </mxCell>
        <mxCell id="XD2HxihkieLU-gVsD95L-11" value="" style="shape=flexArrow;endArrow=classic;html=1;rounded=0;" edge="1" parent="1">
          <mxGeometry width="50" height="50" relative="1" as="geometry">
            <mxPoint x="450" y="390" as="sourcePoint" />
            <mxPoint x="450" y="480" as="targetPoint" />
          </mxGeometry>
        </mxCell>
        <mxCell id="XD2HxihkieLU-gVsD95L-21" value="Retrieving" style="edgeLabel;html=1;align=center;verticalAlign=middle;resizable=0;points=[];" vertex="1" connectable="0" parent="XD2HxihkieLU-gVsD95L-11">
          <mxGeometry x="-0.4667" relative="1" as="geometry">
            <mxPoint as="offset" />
          </mxGeometry>
        </mxCell>
        <mxCell id="XD2HxihkieLU-gVsD95L-14" value="" style="shape=flexArrow;endArrow=classic;html=1;rounded=0;" edge="1" parent="1">
          <mxGeometry width="50" height="50" relative="1" as="geometry">
            <mxPoint x="400" y="250" as="sourcePoint" />
            <mxPoint x="400" y="160" as="targetPoint" />
          </mxGeometry>
        </mxCell>
        <mxCell id="XD2HxihkieLU-gVsD95L-22" value="Uploading" style="edgeLabel;html=1;align=center;verticalAlign=middle;resizable=0;points=[];" vertex="1" connectable="0" parent="XD2HxihkieLU-gVsD95L-14">
          <mxGeometry x="-0.2667" y="1" relative="1" as="geometry">
            <mxPoint y="13" as="offset" />
          </mxGeometry>
        </mxCell>
        <mxCell id="XD2HxihkieLU-gVsD95L-15" value="" style="shape=flexArrow;endArrow=classic;html=1;rounded=0;" edge="1" parent="1">
          <mxGeometry width="50" height="50" relative="1" as="geometry">
            <mxPoint x="450" y="160" as="sourcePoint" />
            <mxPoint x="450" y="250" as="targetPoint" />
          </mxGeometry>
        </mxCell>
        <mxCell id="XD2HxihkieLU-gVsD95L-23" value="Retrieving" style="edgeLabel;html=1;align=center;verticalAlign=middle;resizable=0;points=[];" vertex="1" connectable="0" parent="XD2HxihkieLU-gVsD95L-15">
          <mxGeometry x="-0.6444" y="2" relative="1" as="geometry">
            <mxPoint as="offset" />
          </mxGeometry>
        </mxCell>
      </root>
    </mxGraphModel>
  </diagram>
</mxfile>
